<svg xmlns="http://www.w3.org/2000/svg" height="20" viewBox="0 -960 960 960" width="20"><path d="M292.886-210.232v-539.536h196.068q63.507 0 112.103 39.247 48.595 39.248 48.595 102.637 0 39.884-20.096 71.326-20.096 31.443-51.25 45.871v2.423q39.039 11.572 64.52 46.437 25.48 34.866 25.48 81.788 0 69.307-53.723 109.557t-118.235 40.25H292.886Zm80.19-73.575h118.762q42.7 0 68.451-25.269 25.75-25.269 25.75-59.039 0-33.578-26.25-58.847-26.251-25.27-69.174-25.27H373.076v168.425Zm0-237.538H483q36.462 0 62.097-22.808 25.635-22.808 25.635-55.232 0-33.962-25.667-55.943-25.667-21.981-61.033-21.981H373.076v155.964Z"/></svg>