<svg xmlns="http://www.w3.org/2000/svg" height="20" viewBox="0 96 960 960" width="20"><path d="M548.69 997.23H435.462q-18.092 0-30.738-12.646t-12.646-30.738V777.231q0-18.092 12.646-30.738t30.738-12.646h30.615V571.384q0-5.385-3.462-8.847-3.462-3.461-8.847-3.461H188.386q-26.623 0-45.465-18.842-18.842-18.843-18.842-45.465V358.001q0-26.623 18.842-45.465 18.842-18.842 45.465-18.842h55.845v-30.615q0-18.093 12.646-30.739t30.738-12.646h408.922q18.092 0 30.738 12.646t12.646 30.739v113.228q0 18.092-12.646 30.738t-30.738 12.646H287.615q-18.092 0-30.738-12.646t-12.646-30.738v-30.615h-55.845q-5.385 0-8.847 3.462-3.461 3.462-3.461 8.847v136.768q0 5.385 3.461 8.846 3.462 3.462 8.847 3.462h265.382q26.623 0 45.465 18.842 18.842 18.842 18.842 45.465v162.463h30.615q18.092 0 30.739 12.646 12.646 12.646 12.646 30.738v176.615q0 18.092-12.646 30.738-12.647 12.646-30.739 12.646ZM296.23 271.693v96-96Zm147.846 673.538h96V785.846h-96v159.385ZM296.23 367.693h391.692v-96H296.23v96Zm147.846 577.538h96-96Z"/></svg>